<svg width="60" height="60" viewBox="0 0 60 60" fill="none" xmlns="http://www.w3.org/2000/svg">
<g clip-path="url(#clip0_1813_3395)">
<path d="M30.7391 26.9155L30.7243 26.9219L30.7097 26.9287C30.2629 27.1378 29.7804 27.1415 29.3329 26.9407L29.3254 26.9374L29.3179 26.9341C20.1765 23.0108 11.0296 19.1058 1.8773 15.2193L1.85461 15.2096L1.83147 15.2011C1.66044 15.1383 1.4864 15.0239 1.32922 14.8501C1.19927 14.7064 1.08573 14.5273 1 14.3188V13.6804C1.18582 13.2024 1.4998 12.9517 2.04058 12.724C11.1658 8.88198 20.2854 5.02067 29.3994 1.14008L29.4109 1.13519L29.4222 1.13001C29.8005 0.957662 30.2065 0.956725 30.5849 1.12686L30.5943 1.13109L30.6038 1.13512C39.7188 5.00973 48.8379 8.87078 57.961 12.7183L57.9614 12.7185C58.4937 12.9426 58.8101 13.199 59 13.6825V14.3253C58.8099 14.8077 58.4927 15.0644 57.9582 15.2914C48.8795 19.147 39.8065 23.0218 30.7391 26.9155Z" stroke="#0060AF" stroke-width="2"/>
<path d="M46.6465 30.2218V30.2224C46.6465 30.6035 46.6443 30.9902 46.642 31.3803C46.6368 32.283 46.6315 33.2034 46.6533 34.1136C46.6804 35.2421 46.3172 36.0773 45.6396 36.7717C44.4422 37.9987 42.9928 38.7071 41.3798 39.3126C36.5608 41.1216 31.6091 41.5807 26.5469 41.1064C23.3683 40.8085 20.29 40.1163 17.3462 38.7711C16.2177 38.2555 15.2047 37.6524 14.3511 36.7654L14.3395 36.7533L14.3275 36.7416C14.0219 36.4447 13.7651 36.0539 13.5893 35.592L12.6547 35.9478L13.5893 35.592C13.4135 35.1302 13.3271 34.619 13.3414 34.1006L13.3416 34.0925L13.3417 34.0844C13.3628 32.2232 13.3585 30.3574 13.3543 28.4996C13.3529 27.9151 13.3516 27.3315 13.3511 26.749C14.3972 27.195 15.4432 27.6402 16.4887 28.0853C20.1414 29.64 23.79 31.193 27.4315 32.7747C29.0865 33.524 30.9236 33.5238 32.5785 32.7743C36.1544 31.2271 39.7356 29.7019 43.3199 28.1753C44.4286 27.7032 45.5375 27.2308 46.6467 26.7577C46.6473 27.9124 46.6473 29.0671 46.6465 30.2218ZM13.358 25.6689C13.3581 25.6689 13.3579 25.6703 13.3576 25.6728C13.3578 25.6701 13.358 25.6688 13.358 25.6689ZM46.639 25.6845C46.639 25.6845 46.6392 25.6859 46.6395 25.6889C46.6391 25.6861 46.6389 25.6846 46.639 25.6845Z" stroke="#0060AF" stroke-width="2"/>
<path d="M53.0037 23.9561C53.0033 23.8598 53.0086 23.7983 53.0146 23.7601C53.0288 23.7535 53.048 23.7453 53.0736 23.7357L53.0736 23.7357C53.7269 23.4922 54.3795 23.2102 55.0307 22.9255C55.0306 28.4227 55.0278 33.9198 55.0223 39.4169C55.0038 39.728 55.0508 40.0427 55.1629 40.3339C55.2763 40.6288 55.4566 40.899 55.6986 41.1099C56.0341 41.423 56.3149 41.8344 56.5102 42.3183C56.7072 42.8065 56.8088 43.3484 56.8034 43.9C56.7979 44.4516 56.6855 44.9899 56.4793 45.4714C56.2756 45.9472 55.9887 46.3481 55.6497 46.6502C55.4299 46.8287 55.2661 47.061 55.1618 47.3142C55.0574 47.5675 55.0119 47.8425 55.025 48.1142C55.035 51.3185 55.0362 54.5228 55.0286 57.7272L55.0286 57.7277C55.027 58.6611 54.6226 59.1029 54.2404 59.2146C53.9435 59.3013 53.6759 59.2261 53.4545 59.009C53.2198 58.7789 53.0201 58.3617 53.0184 57.7825C53.0087 54.6034 53.0097 51.4244 53.0215 48.2453C53.0398 47.9419 52.9929 47.6346 52.881 47.351C52.7687 47.0665 52.5906 46.806 52.3517 46.6048C52.0174 46.2939 51.737 45.8856 51.541 45.405C51.3426 44.9183 51.239 44.3773 51.2423 43.8261C51.2456 43.2748 51.3556 42.736 51.5596 42.2533C51.7612 41.7764 52.0462 41.3735 52.3838 41.0689C52.6097 40.8834 52.778 40.6421 52.8847 40.3791C52.9912 40.1166 53.037 39.8319 53.0222 39.5507C53.0177 37.3609 53.017 35.1684 53.0164 32.9752C53.0155 29.9687 53.0147 26.9607 53.0037 23.9561ZM53.0037 23.9561L52.2537 23.9588M53.0037 23.9561L52.2537 23.9588M52.2537 23.9588C52.2647 26.9634 52.2655 29.968 52.2664 32.9727C52.267 35.1729 52.2677 37.3732 52.2723 39.5734L55.0307 22.1067C54.9854 22.1266 54.9402 22.1463 54.8951 22.1661C54.1904 22.4745 53.5063 22.774 52.8116 23.033C52.3829 23.1928 52.2517 23.4192 52.2537 23.9588Z" stroke="#0060AF" stroke-width="1.5"/>
</g>
<defs>
<clipPath id="clip0_1813_3395">
<rect width="60" height="60" fill="white"/>
</clipPath>
</defs>
</svg>
